<?xml version="1.0" encoding="UTF-8"?>
<!DOCTYPE svg PUBLIC "-//W3C//DTD SVG 1.1//EN" "http://www.w3.org/Graphics/SVG/1.1/DTD/svg11.dtd">
<!-- Creator: CorelDRAW X8 -->
<svg xmlns="http://www.w3.org/2000/svg" xml:space="preserve" width="210mm" height="297mm" version="1.1" style="shape-rendering:geometricPrecision; text-rendering:geometricPrecision; image-rendering:optimizeQuality; fill-rule:evenodd; clip-rule:evenodd"
viewBox="0 0 21000 29700"
 xmlns:xlink="http://www.w3.org/1999/xlink">
 <defs>
  <style type="text/css">
   <![CDATA[
    .fil0 {fill:#FEFEFE}
   ]]>
  </style>
 </defs>
 <g id="Слой_x0020_1">
  <metadata id="CorelCorpID_0Corel-Layer"/>
  <polygon class="fil0" points="13881,23309 13881,22528 13595,22528 13595,22265 14566,22265 14566,22528 14294,22528 14294,23309 "/>
  <path class="fil0" d="M13569 22258l-413 1139c-31,86 -77,153 -136,202 -59,48 -151,72 -274,72 -30,0 -99,-3 -207,-9l0 -292c54,8 104,12 149,12 119,0 178,-26 178,-79 0,-16 -6,-40 -18,-71l-377 -974 441 0 174 560 182 -560 301 0z"/>
  <polygon class="fil0" points="11760,23309 11760,22528 11474,22528 11474,22265 12445,22265 12445,22528 12173,22528 12173,23309 "/>
  <path class="fil0" d="M10767 23210l0 99 -413 0 0 -1044 413 0 0 334c0,62 -4,147 -12,254 43,-95 80,-172 111,-229l122 -233 0 -126 413 0 0 1044 -413 0 0 -306c0,-77 4,-161 12,-254 -43,96 -80,173 -111,229l-122 232z"/>
  <polygon class="fil0" points="9596,23309 9596,22528 9309,22528 9309,22265 10281,22265 10281,22528 10008,22528 10008,23309 "/>
  <path class="fil0" d="M8946 22885l351 30c-16,123 -68,223 -154,300 -87,77 -202,116 -345,116 -161,0 -291,-51 -391,-152 -100,-101 -151,-230 -151,-388 0,-161 51,-294 150,-398 99,-104 229,-157 388,-157 141,0 256,40 345,118 89,79 140,179 153,300l-361 30c-15,-111 -57,-167 -126,-167 -44,0 -76,21 -96,61 -21,40 -31,110 -31,210 0,86 10,150 31,191 20,42 55,62 105,62 74,0 118,-52 132,-156z"/>
  <polygon class="fil0" points="7077,23309 7077,22265 7489,22265 7489,22638 7683,22638 7683,22265 8095,22265 8095,23309 7683,23309 7683,22883 7489,22883 7489,23309 "/>
  <path class="fil0" d="M6225 23210l0 99 -412 0 0 -1044 412 0 0 334c0,62 -3,147 -11,254 43,-95 80,-172 111,-229l122 -233 0 -126 413 0 0 1044 -413 0 0 -306c0,-77 4,-161 12,-254 -43,96 -80,173 -111,229l-123 232z"/>
  <path class="fil0" d="M15790 20205l181 0c-23,105 -71,186 -141,241 -70,55 -148,83 -233,83 -84,0 -162,-26 -232,-80 -70,-52 -119,-134 -145,-244l181 0c48,97 113,146 197,146 84,0 148,-49 192,-146z"/>
  <path class="fil0" d="M15484 21650l0 99 -412 0 0 -1043 412 0 0 333c0,62 -4,147 -11,255 43,-96 80,-172 110,-229l123 -233 0 -126 412 0 0 1043 -412 0 0 -305c0,-77 4,-162 12,-255 -44,97 -81,173 -111,230l-123 231z"/>
  <path class="fil0" d="M14221 21650l0 99 -413 0 0 -1043 413 0 0 333c0,62 -4,147 -12,255 43,-96 80,-172 111,-229l122 -233 0 -126 413 0 0 1043 -413 0 0 -305c0,-77 4,-162 12,-255 -43,97 -80,173 -111,230l-122 231z"/>
  <path class="fil0" d="M13402 21060l354 689 -426 0 -197 -420 -115 131 0 289 -410 0 0 -1043 410 0 0 392c23,-35 48,-67 73,-96l264 -296 364 0 -317 354z"/>
  <path class="fil0" d="M12135 21326l351 30c-17,122 -68,222 -155,299 -86,77 -201,116 -344,116 -161,0 -291,-51 -391,-151 -100,-101 -151,-231 -151,-388 0,-162 50,-294 150,-398 99,-105 229,-157 388,-157 141,0 256,39 344,118 89,79 140,179 154,299l-361 30c-15,-111 -57,-166 -126,-166 -44,0 -76,20 -97,60 -20,40 -30,111 -30,210 0,87 10,150 30,192 21,41 56,62 106,62 74,0 117,-52 132,-156z"/>
  <path class="fil0" d="M10701 21513l134 0c46,0 76,-10 91,-29 14,-19 22,-47 22,-84 0,-44 -10,-73 -27,-89 -18,-15 -47,-23 -86,-23l-134 0 0 225z"/>
  <path class="fil0" d="M10701 21126l144 0c59,0 88,-30 88,-91 0,-67 -29,-101 -88,-101l-144 0 0 192z"/>
  <path class="fil0" d="M10303 21749l0 -1043 662 0c118,0 206,24 264,72 57,48 85,112 85,189 0,129 -86,209 -259,240 192,35 288,124 288,268 0,91 -34,159 -103,205 -68,46 -164,69 -286,69l-651 0z"/>
  <path class="fil0" d="M9565 21521c64,0 103,-33 118,-100 14,-66 21,-135 21,-208 0,-98 -10,-169 -30,-213 -20,-43 -56,-65 -108,-65 -47,0 -82,23 -104,67 -22,45 -33,119 -33,222 0,120 11,200 34,239 23,38 57,58 102,58z"/>
  <path class="fil0" d="M9559 21771c-174,0 -313,-54 -415,-163 -103,-108 -154,-235 -154,-381 0,-158 53,-288 160,-393 108,-105 247,-157 418,-157 173,0 312,51 417,155 105,103 158,233 158,388 0,157 -54,288 -160,394 -106,105 -248,157 -424,157z"/>
  <polygon class="fil0" points="7799,21749 7799,20706 8211,20706 8211,21487 8403,21487 8403,20706 8814,20706 8814,21487 8965,21487 8965,21989 8721,21989 8686,21749 "/>
  <path class="fil0" d="M7066 20934c-47,0 -82,20 -103,60 -22,40 -32,118 -32,233 0,117 11,194 33,230 23,37 58,56 106,56 48,0 82,-20 103,-59 22,-39 32,-115 32,-227 0,-110 -10,-186 -29,-229 -21,-42 -57,-64 -110,-64z"/>
  <path class="fil0" d="M7148 20246l400 0c-4,66 -33,121 -87,167 -54,47 -156,85 -305,116 -94,20 -159,44 -195,75 -35,30 -58,78 -67,144 69,-29 143,-44 223,-44 168,0 297,50 385,151 88,100 132,220 132,360 0,163 -51,296 -154,400 -103,104 -240,156 -411,156 -127,0 -235,-28 -324,-85 -88,-56 -150,-129 -184,-218 -34,-89 -51,-197 -51,-324 0,-130 13,-242 38,-338 25,-96 62,-175 111,-239 48,-64 99,-110 152,-139 53,-29 127,-57 222,-84 51,-13 83,-26 95,-36 12,-11 19,-32 20,-62z"/>
  <path class="fil0" d="M6460 20698l-413 1139c-31,86 -77,154 -136,202 -59,49 -151,73 -274,73 -29,0 -98,-3 -206,-9l0 -293c53,8 103,13 148,13 119,0 178,-26 178,-79 0,-17 -6,-41 -17,-71l-378 -975 441 0 174 560 182 -560 301 0z"/>
  <path class="fil0" d="M4565 20934l144 0c128,0 192,-47 192,-140 0,-89 -59,-133 -177,-133l-159 0 0 273z"/>
  <path class="fil0" d="M4571 21237l0 512 -439 0 0 -1410 602 0c150,0 265,17 343,52 78,34 140,87 186,158 46,71 68,150 68,238 0,135 -46,243 -140,326 -94,83 -219,124 -375,124l-245 0z"/>
  <path class="fil0" d="M11645 16584c-552,-330 -1245,-563 -1737,-966 -7,-6 -13,-11 -19,-16l-12 392c157,96 318,182 461,235 0,0 -249,26 -468,-7l-16 514c96,-37 182,-81 249,-132 0,0 352,-197 724,-40 372,158 837,395 1170,494 0,0 -818,78 -1150,39 -229,-27 -625,-64 -1003,-52l-13 434c265,4 535,26 703,13 254,-20 782,-99 958,-198l20 20c-176,99 -705,217 -959,237 -172,13 -452,-10 -724,-14l-4 136c48,34 89,72 129,115l46 56c28,40 53,79 76,121 27,51 51,102 72,156 25,65 46,131 64,198 422,-73 892,-259 1378,-713 0,0 524,-410 818,-371 0,0 1076,276 1991,766 920,493 1796,848 3048,2225 246,-166 560,-736 254,-983 -195,-157 -1369,-848 -1952,-1085 -587,-236 -1389,-532 -1819,-666 -777,-252 -1574,-489 -2285,-908z"/>
  <path class="fil0" d="M10801 14762c312,-1799 2273,-2255 3530,-3007 -133,-486 -285,-888 -492,-1358 -763,1697 -2925,2469 -3050,4365 -2,33 11,17 12,0z"/>
  <path class="fil0" d="M10482 14040c15,-75 34,-152 58,-229 315,-927 1075,-1546 1724,-2201 106,-105 215,-218 323,-337 1,-2 1,-2 0,-3 -211,-331 -361,-531 -563,-831 -1,-1 -1,-1 -1,1 -403,1451 -1371,2139 -1552,3594 -12,95 2,52 11,6z"/>
  <path class="fil0" d="M11143 14820c869,-2147 3675,-1978 4845,-3855 115,423 209,973 231,1532 -1216,411 -2522,525 -3673,1105 -677,341 -1015,643 -1403,1218z"/>
  <path class="fil0" d="M16083 9823c374,736 578,1778 620,2491 892,-378 1708,-948 2285,-1778 29,-43 47,-60 57,6 203,1348 -212,4015 -750,5080 -23,44 -24,44 -16,-4 330,-2109 352,-3274 335,-3765 -2477,2364 -5740,697 -7731,4087 -8,13 -7,13 -16,5 -2535,-2396 1067,-4252 724,-6659 -6,-61 -36,-124 46,-49 494,459 875,962 1290,1616 8,12 6,12 15,1 336,-428 698,-979 786,-1542 17,-107 6,-162 94,-26 428,665 713,1422 931,2190 564,-424 971,-971 1284,-1651 17,-38 26,-41 46,-2z"/>
  <path class="fil0" d="M8276 13468c-232,-297 -442,-866 -526,-1248 -84,-382 -248,-743 -375,-976 127,233 207,594 291,976 84,382 336,951 568,1248l42 0z"/>
  <path class="fil0" d="M8633 12606c-26,-53 -53,-105 -83,-157 -379,-658 -716,-1252 -1368,-1740 0,0 -379,1231 105,2160 484,934 863,913 1052,1167 147,198 268,280 354,534l-60 -1964z"/>
  <path class="fil0" d="M7533 14884c-400,0 -1006,-254 -1279,-424 -274,-170 -695,-382 -947,-446 -253,-63 -526,-135 -779,-157 253,22 568,30 821,94 252,63 673,276 947,445 273,170 837,446 1237,446l0 42z"/>
  <path class="fil0" d="M5496 12826c-231,-106 -379,-293 -547,-420 -168,-127 -505,-488 -775,-658 -273,-170 -947,-424 -1220,-531 273,107 821,361 1094,531 270,170 606,531 775,658 168,127 400,335 631,441l42 -21z"/>
  <path class="fil0" d="M5180 11430c-357,-255 -883,-870 -1048,-1104 -168,-229 -294,-547 -484,-929 -189,-382 -745,-1006 -976,-1218 231,212 850,772 1040,1154 189,382 315,700 479,930 169,233 695,870 1010,1124l-21 43z"/>
  <path class="fil0" d="M6422 12003c-42,-43 -168,-404 -189,-616 -21,-212 -21,-602 -127,-976 -126,-441 -378,-929 -420,-1142 42,213 378,701 505,1142 105,374 105,764 126,976 21,212 105,573 147,616l-42 0z"/>
  <path class="fil0" d="M2461 7975c43,424 240,1422 661,1931 421,505 1175,1311 2101,1906 0,0 715,467 1262,1269 0,0 -547,-106 -694,-297 -148,-187 -674,-803 -1031,-1057 -358,-255 -901,-722 -2480,-807 0,0 569,934 1432,1507 858,569 1447,781 1952,866 506,85 758,212 1091,191 0,0 1241,1146 1662,1443 0,0 -589,-127 -968,-340 -379,-212 -1069,-827 -1848,-870 -778,-42 -1347,-63 -1532,-63 0,0 543,1124 1448,1337 905,208 1722,377 3174,208 0,0 5,4 16,13l-13 -416c-189,-146 -778,-601 -971,-760 -232,-191 -674,-616 -842,-828 0,0 -84,-929 -84,-1502 0,-573 -127,-1337 -312,-1694 -189,-361 -631,-912 -926,-1167 0,0 -336,1273 -210,1821 126,551 547,1124 821,1358 273,233 378,446 399,760 0,0 -631,-633 -778,-887 -148,-255 -905,-1694 -1284,-2224 -375,-531 -1103,-1422 -2046,-1698z"/>
  <path class="fil0" d="M8726 15832c-180,-41 -368,-69 -540,-60 -442,21 -1326,148 -1659,976 0,0 627,-106 880,-64 252,43 610,149 968,149 102,0 235,-7 382,-23l-20 -647c-212,-27 -429,-52 -615,-52 -252,0 -673,119 -904,242 231,-123 610,-305 862,-305 192,0 427,30 655,64l-9 -280z"/>
  <path class="fil0" d="M9714 7077c40,-55 47,-106 27,-151 95,-77 185,-156 269,-236 49,17 97,35 147,55 -77,109 -151,213 -216,303 -26,13 -51,26 -76,38 -48,-4 -99,-7 -151,-9z"/>
  <path class="fil0" d="M10232 6464c154,-171 274,-339 345,-493 26,12 50,24 73,37 -81,134 -197,309 -320,488 -32,-12 -65,-23 -98,-32z"/>
  <path class="fil0" d="M9840 6413c-34,-1 -69,0 -104,2 60,-97 91,-183 78,-244 74,-121 127,-237 149,-340 64,4 125,10 184,19 -45,146 -153,343 -307,563z"/>
  <path class="fil0" d="M9600 6604c31,3 60,7 88,11 -42,54 -87,109 -134,164 -25,-11 -52,-20 -80,-29 44,-49 86,-98 126,-146z"/>
  <path class="fil0" d="M10229 7348c52,5 103,9 152,13 -22,7 -45,12 -68,17 -36,8 -71,14 -107,20 -292,45 -588,56 -883,57 -80,0 -160,-1 -240,-3 -109,-4 -218,-10 -328,-18 -162,-13 -325,-30 -483,-70 -25,-8 -50,-16 -75,-25l-40 -19 -17 -10 -5 -4c1,18 3,30 3,30l4 9c0,94 526,167 1181,167 595,0 1084,-61 1169,-142 393,28 649,16 523,-193 -28,-54 -57,-105 -87,-152 397,-128 688,-335 626,-697 -31,-173 -105,-339 -218,-481 128,-297 44,-508 -429,-479 -137,9 -264,20 -384,33 -157,-129 -466,-191 -972,-151 -435,16 -1812,282 -2247,-45 173,205 684,286 1223,322 -633,103 -1014,199 -1555,-57 232,262 651,335 1069,347 -535,150 -921,336 -1156,270 355,41 1366,-385 1746,-41 -128,30 -277,76 -448,139 -402,151 -1161,555 -1376,580 182,0 1216,-293 1767,-403 -666,275 -1361,640 -1585,619 290,24 1137,-277 1789,-495 -3,57 -9,119 -21,187 -59,2 -118,7 -176,14 -696,172 -572,474 -1617,474 294,-13 808,-69 1291,-102 -226,101 -425,229 -603,273 -315,78 -663,147 -750,156 333,76 968,-108 1285,-203 140,72 594,125 1136,125 365,0 690,-24 906,-62z"/>
  <path class="fil0" d="M9550 9537c-106,54 -199,116 -272,182l0 0c-5,4 -9,8 -13,12 0,0 0,0 0,0 0,0 0,0 0,0 0,0 -1,0 -1,0 0,0 0,0 0,0 -4,-4 -8,-8 -13,-12l0 0c-54,-48 -118,-93 -189,-135l4 48c14,112 31,222 52,332 44,225 98,451 185,664 88,-213 141,-439 186,-664 20,-110 37,-220 51,-332 4,-32 7,-63 10,-95z"/>
  <path class="fil0" d="M9535 11242l-125 6399c31,7 61,16 89,27l126 -6426 153 0 -200 6464c334,192 425,677 467,864l-494 0 -13 442 -65 0 8 -442 -89 0 -9 442 -160 0 -8 -442 -90 0 9 442 -74 0 -13 -442 -568 0c45,-200 145,-737 540,-898l-199 -6430 162 0 125 6402c28,-7 58,-12 89,-15l-125 -6387 464 0z"/>
  <path class="fil0" d="M9299 10809c0,0 340,0 514,0 120,0 220,85 220,192 0,106 -100,196 -220,196 -157,0 -514,0 -514,0 0,0 -356,0 -514,0 -124,0 -220,-90 -220,-196 0,-107 96,-192 220,-192 174,0 514,0 514,0z"/>
  <path class="fil0" d="M10627 8548c-180,274 -685,573 -790,2217l-23 -1 -476 0c220,-394 514,-1882 129,-2142l271 -5 274 -11 252 -16 115 -10 106 -11 96 -13 46 -8z"/>
  <path class="fil0" d="M10515 7390c8,13 17,24 28,34 33,36 66,85 62,110 -29,90 -584,167 -1302,167 -717,0 -1273,-77 -1302,-167 -4,-25 29,-74 63,-110 11,-10 19,-21 27,-34l13 15 16 12 17 11 19 9c23,10 45,18 69,26 41,11 81,20 122,28 129,23 258,37 389,48l104 7c114,6 227,10 341,12 121,1 242,0 362,-3 143,-4 284,-12 426,-25 45,-4 90,-9 135,-15 110,-14 221,-31 326,-69l40 -18 17 -11 15 -12 13 -15z"/>
  <path class="fil0" d="M9303 8342c958,0 1733,-73 1733,-167l0 -16c13,-233 -195,-425 -360,-560 -10,-3 -17,3 -41,-27l-10 11 -16 13 -36 20c-23,10 -46,18 -70,25 -139,39 -283,56 -426,71 -89,9 -179,15 -269,21 -124,6 -248,10 -372,13 -131,1 -263,0 -395,-3 -100,-3 -199,-8 -299,-14 -195,-13 -390,-30 -581,-72l-57 -16c-24,-7 -47,-15 -70,-25l-20 -10 -17 -10 -15 -13 -10 -11c-25,30 -32,24 -41,27 -166,135 -373,327 -361,560l0 16c0,94 775,167 1733,167z"/>
  <path class="fil0" d="M7744 8408l-4 -8c0,0 -16,-25 -70,-74 -32,-24 -52,-47 -66,-69l5 3 55 17c36,9 71,16 107,23 233,39 469,55 704,68 159,7 318,13 478,16 176,3 352,4 528,3 166,-2 333,-6 499,-12l813 -68 81 -14c33,-7 65,-15 98,-25l26 -8 5 -3c-14,22 -35,45 -66,69 -54,49 -71,74 -71,74l-4 8c0,226 -3118,226 -3118,0z"/>
  <path class="fil0" d="M9269 10764c-221,-394 -515,-1882 -129,-2142l-271 -5 -275 -11 -252 -16 -115 -10 -106 -11 -96 -13 -46 -8c181,274 685,573 790,2216l15 0 485 0z"/>
  <path class="fil0" d="M9374 19457l-12 627 -13 51 115 0 -12 -50 12 -628 60 0 -22 703c-4,98 -45,232 -203,228 -158,-4 -199,-130 -203,-228l-22 -703 68 0 13 628 -13 50 115 0 -13 -51 -12 -627 142 0z"/>
  <path class="fil0" d="M9299 19057c0,0 232,0 352,0 83,0 154,78 154,180 0,98 -71,175 -154,175 -107,0 -352,0 -352,0 0,0 -245,0 -352,0 -83,0 -154,-77 -154,-175 0,-102 71,-180 154,-180 120,0 352,0 352,0z"/>
 </g>
</svg>
